<?xml version="1.0" encoding="utf-8"?>
<!-- Generator: Adobe Illustrator 24.3.0, SVG Export Plug-In . SVG Version: 6.00 Build 0)  -->
<svg version="1.1" id="Layer_1" xmlns="http://www.w3.org/2000/svg" xmlns:xlink="http://www.w3.org/1999/xlink" x="0px" y="0px"
	 viewBox="0 0 220 160" style="enable-background:new 0 0 220 160;" xml:space="preserve">
<style type="text/css">
	.st0{fill:#FFFFFF;}
	.st1{fill:#FFA41B;}
	.st2{fill:#F86F03;}
</style>
<circle class="st0" cx="5" cy="5" r="5"/>
<circle class="st0" cx="35" cy="5" r="5"/>
<circle class="st0" cx="65" cy="5" r="5"/>
<circle class="st1" cx="95" cy="5" r="5"/>
<circle class="st1" cx="125" cy="5" r="5"/>
<circle class="st1" cx="155" cy="5" r="5"/>
<circle class="st1" cx="185" cy="5" r="5"/>
<circle class="st1" cx="215" cy="5" r="5"/>
<circle class="st0" cx="5" cy="35" r="5"/>
<circle class="st0" cx="35" cy="35" r="5"/>
<circle class="st0" cx="65" cy="35" r="5"/>
<circle class="st1" cx="95" cy="35" r="5"/>
<circle class="st1" cx="125" cy="35" r="5"/>
<circle class="st1" cx="155" cy="35" r="5"/>
<circle class="st1" cx="185" cy="35" r="5"/>
<circle class="st1" cx="215" cy="35" r="5"/>
<g>
	<circle class="st2" cx="5" cy="65" r="5"/>
	<circle class="st2" cx="35" cy="65" r="5"/>
	<circle class="st2" cx="65" cy="65" r="5"/>
	<circle class="st2" cx="95" cy="65" r="5"/>
	<circle class="st2" cx="125" cy="65" r="5"/>
	<circle class="st2" cx="155" cy="65" r="5"/>
	<circle class="st2" cx="185" cy="65" r="5"/>
	<circle class="st2" cx="215" cy="65" r="5"/>
	<circle class="st2" cx="5" cy="95" r="5"/>
	<circle class="st2" cx="35" cy="95" r="5"/>
	<circle class="st2" cx="65" cy="95" r="5"/>
	<circle class="st2" cx="95" cy="95" r="5"/>
	<circle class="st2" cx="125" cy="95" r="5"/>
	<circle class="st2" cx="155" cy="95" r="5"/>
	<circle class="st2" cx="185" cy="95" r="5"/>
	<circle class="st2" cx="215" cy="95" r="5"/>
	<circle class="st2" cx="5" cy="125" r="5"/>
	<circle class="st2" cx="35" cy="125" r="5"/>
	<circle class="st2" cx="65" cy="125" r="5"/>
	<circle class="st2" cx="95" cy="125" r="5"/>
	<circle class="st2" cx="125" cy="125" r="5"/>
	<circle class="st2" cx="155" cy="125" r="5"/>
	<circle class="st2" cx="185" cy="125" r="5"/>
	<circle class="st2" cx="215" cy="125" r="5"/>
	<circle class="st2" cx="5" cy="155" r="5"/>
	<circle class="st2" cx="35" cy="155" r="5"/>
	<circle class="st2" cx="65" cy="155" r="5"/>
	<circle class="st2" cx="95" cy="155" r="5"/>
	<circle class="st2" cx="125" cy="155" r="5"/>
	<circle class="st2" cx="155" cy="155" r="5"/>
	<circle class="st2" cx="185" cy="155" r="5"/>
	<circle class="st2" cx="215" cy="155" r="5"/>
</g>
</svg>
