<?xml version="1.0" encoding="utf-8"?>
<!-- Generator: Adobe Illustrator 24.3.0, SVG Export Plug-In . SVG Version: 6.00 Build 0)  -->
<svg version="1.1" id="Layer_1" xmlns="http://www.w3.org/2000/svg" xmlns:xlink="http://www.w3.org/1999/xlink" x="0px" y="0px"
	 viewBox="0 0 494.8 638.6" style="enable-background:new 0 0 494.8 638.6;" xml:space="preserve">
<style type="text/css">
	.st0{fill:#FFA41B;}
	.st1{clip-path:url(#SVGID_2_);}
	.st2{opacity:0.3;fill:#F86F03;enable-background:new    ;}
</style>
<path class="st0" d="M319.3,0c176.3,0-67.1,208.9,88.6,319.3s87.8,319.3-88.6,319.3S0,495.6,0,319.3S143,0,319.3,0z"/>
<g>
	<defs>
		<path id="SVGID_1_" d="M319.3,0c176.3,0-67.1,208.9,88.6,319.3s87.8,319.3-88.6,319.3S0,495.6,0,319.3S143,0,319.3,0z"/>
	</defs>
	<use xlink:href="#SVGID_1_"  style="overflow:visible;fill:#FFA41B;"/>
	<clipPath id="SVGID_2_">
		<use xlink:href="#SVGID_1_"  style="overflow:visible;"/>
	</clipPath>
	<g transform="translate(-297.858 -1341)" class="st1">
		<path class="st2" d="M473.4,1979.6c-176.3,0,67.1-208.9-88.6-319.3C229.1,1549.9,297,1341,473.4,1341s319.3,143,319.3,319.3
			S649.7,1979.6,473.4,1979.6z"/>
	</g>
</g>
</svg>
