<svg fill="none" height="28" viewBox="0 0 136 28" width="136" xmlns="http://www.w3.org/2000/svg"><g fill="#f86f03">
  <path class="st0" d="M34.4,8.8c-1.6-1.8-3.9-3.1-6.3-3.6c-1.3-2.1-3.4-3.7-5.7-4.6C21.3,0.2,20.1,0,18.8,0C12.9,0,8,4.6,7.7,10.3
		C3.3,10.9,0,14.6,0,19c0,4.9,4.1,9,9,9h16.9c6.4,0,11.6-5.2,11.6-11.5C37.5,13.6,36.4,10.9,34.4,8.8z M25.8,24.9h-17
		c-3.3,0-5.7-2.5-5.7-5.7c0-3.2,2.6-5.7,5.7-5.7h1.9v-2.3c0-4.4,3.6-8,8-8c1,0,1.8,0.2,2.6,0.5c1.8,0.6,3.4,1.9,4.4,3.7l0.5,0.8
		L27,8.5c1.9,0.2,3.9,1.1,5.2,2.6c1.5,1.6,2.3,3.6,2.3,5.7C34.2,21.1,30.5,24.9,25.8,24.9z"/>
		<path class="st0" d="M51.3,21.5l-3.1-5.6h-0.9v5.6h-3.6V6.7h6c1.2,0,2.2,0.2,3,0.6c0.8,0.4,1.4,1,1.8,1.7c0.4,0.7,0.6,1.5,0.6,2.4
			c0,1-0.3,1.9-0.8,2.6c-0.6,0.8-1.4,1.3-2.4,1.6l3.4,5.8H51.3z M47.4,13.4h2.2c0.7,0,1.2-0.2,1.5-0.5c0.3-0.3,0.5-0.8,0.5-1.4
			c0-0.6-0.2-1-0.5-1.3c-0.3-0.3-0.8-0.5-1.5-0.5h-2.2V13.4z"/>
		<path class="st0" d="M57.6,21.1c-0.4-0.4-0.6-0.8-0.6-1.4c0-0.6,0.2-1,0.6-1.4s0.9-0.6,1.5-0.6c0.6,0,1.1,0.2,1.5,0.6
			s0.6,0.8,0.6,1.4c0,0.5-0.2,1-0.6,1.4s-0.9,0.6-1.5,0.6C58.5,21.6,58,21.4,57.6,21.1z"/>
		<path class="st0" d="M67,9.6v3h4.8v2.8H67v3.2h5.4v2.9h-9V6.7h9v2.9H67z"/>
		<path class="st0" d="M74.9,21.1c-0.4-0.4-0.6-0.8-0.6-1.4c0-0.6,0.2-1,0.6-1.4s0.9-0.6,1.5-0.6c0.6,0,1.1,0.2,1.5,0.6
			c0.4,0.4,0.6,0.8,0.6,1.4c0,0.5-0.2,1-0.6,1.4c-0.4,0.4-0.9,0.6-1.5,0.6C75.8,21.6,75.3,21.4,74.9,21.1z"/>
		<path class="st0" d="M93.9,21.5h-3.6l-6-9.1v9.1h-3.6V6.7h3.6l6,9.1V6.7h3.6V21.5z"/>
		<path class="st0" d="M96.6,21.1c-0.4-0.4-0.6-0.8-0.6-1.4c0-0.6,0.2-1,0.6-1.4s0.9-0.6,1.5-0.6c0.6,0,1.1,0.2,1.5,0.6
			c0.4,0.4,0.6,0.8,0.6,1.4c0,0.5-0.2,1-0.6,1.4c-0.4,0.4-0.9,0.6-1.5,0.6C97.5,21.6,97,21.4,96.6,21.1z"/>
		<path class="st0" d="M105.5,20.6c-1.2-0.6-2.1-1.5-2.8-2.7c-0.7-1.2-1-2.5-1-3.9s0.3-2.7,1-3.9c0.7-1.1,1.6-2,2.8-2.7
			c1.2-0.6,2.4-1,3.8-1c1.4,0,2.7,0.3,3.8,1c1.2,0.6,2.1,1.5,2.7,2.7s1,2.4,1,3.9s-0.3,2.7-1,3.9c-0.7,1.2-1.6,2.1-2.7,2.7
			c-1.1,0.6-2.4,1-3.8,1C108,21.6,106.7,21.3,105.5,20.6z M112.2,17.2c0.7-0.8,1.1-1.8,1.1-3.1c0-1.3-0.4-2.3-1.1-3.1
			c-0.7-0.8-1.6-1.2-2.8-1.2c-1.2,0-2.1,0.4-2.8,1.2s-1.1,1.8-1.1,3.1c0,1.3,0.4,2.3,1.1,3.1c0.7,0.8,1.7,1.2,2.8,1.2
			C110.5,18.3,111.5,17.9,112.2,17.2z"/>
		<path class="st0" d="M119,21.1c-0.4-0.4-0.6-0.8-0.6-1.4c0-0.6,0.2-1,0.6-1.4s0.9-0.6,1.5-0.6c0.6,0,1.1,0.2,1.5,0.6
			c0.4,0.4,0.6,0.8,0.6,1.4c0,0.5-0.2,1-0.6,1.4c-0.4,0.4-0.9,0.6-1.5,0.6C119.9,21.6,119.4,21.4,119,21.1z"/>
		<path class="st0" d="M127.2,21.1c-0.9-0.3-1.5-0.9-2-1.6s-0.8-1.5-0.8-2.5h3.8c0.1,0.5,0.2,1,0.6,1.2c0.3,0.3,0.7,0.4,1.3,0.4
			c0.5,0,1-0.1,1.3-0.4c0.3-0.2,0.5-0.6,0.5-1c0-0.4-0.1-0.7-0.4-0.9c-0.2-0.2-0.5-0.4-0.9-0.6c-0.4-0.2-0.9-0.3-1.5-0.5
			c-1-0.3-1.7-0.6-2.3-0.9s-1.1-0.7-1.6-1.3c-0.4-0.6-0.7-1.3-0.7-2.2c0-1.4,0.5-2.4,1.5-3.2c1-0.8,2.3-1.2,3.9-1.2
			c1.6,0,2.9,0.4,3.9,1.2c1,0.8,1.5,1.9,1.6,3.2h-3.9c0-0.5-0.2-0.9-0.5-1.1s-0.7-0.4-1.2-0.4c-0.4,0-0.8,0.1-1,0.3
			c-0.3,0.2-0.4,0.6-0.4,1c0,0.5,0.2,0.8,0.7,1.1c0.4,0.3,1.1,0.6,2.1,0.9c1,0.3,1.7,0.6,2.3,0.9s1.1,0.7,1.5,1.3
			c0.4,0.6,0.7,1.3,0.7,2.2c0,0.8-0.2,1.6-0.6,2.3c-0.4,0.7-1,1.2-1.9,1.6c-0.8,0.4-1.8,0.6-2.9,0.6
			C129.1,21.6,128.1,21.4,127.2,21.1z"/>
  </g></svg>